Coordinates
version=1
nRows=7
nColumns=40
inDegrees=yes

Units are S.I. units (second, meters, Newtons, ...)
Angles are in degrees.

endheader
time	pelvis_tilt	pelvis_list	pelvis_rotation	pelvis_tx	pelvis_ty	pelvis_tz	hip_flexion_r	hip_adduction_r	hip_rotation_r	knee_angle_r	knee_angle_r_beta	ankle_angle_r	subtalar_angle_r	mtp_angle_r	hip_flexion_l	hip_adduction_l	hip_rotation_l	knee_angle_l	knee_angle_l_beta	ankle_angle_l	subtalar_angle_l	mtp_angle_l	lumbar_extension	lumbar_bending	lumbar_rotation	arm_flex_r	arm_add_r	arm_rot_r	elbow_flex_r	pro_sup_r	wrist_flex_r	wrist_dev_r	arm_flex_l	arm_add_l	arm_rot_l	elbow_flex_l	pro_sup_l	wrist_flex_l	wrist_dev_l
     38.71000000	     -3.04932121	     -4.15672010	      3.75742233	      0.88630144	      0.93080784	      0.50724199	     13.83257982	      2.90026067	    -17.09373967	     17.55416051	     17.55416051	      9.01625934	     -4.22647423	     -5.68771539	     28.55122122	    -11.16617158	     -1.51117350	     48.52482388	     48.52482388	     15.03576992	    -19.16289577	     18.03513500	    -11.74582282	      7.84835051	      2.68213954	     22.88021714	    -17.18153520	     -0.75711133	     43.40626201	     44.59023981	      0.00000000	      0.00000000	     -6.52022387	    -11.02883581	     -8.00042717	     59.83288359	     45.14478953	      0.00000000	      0.00000000
     38.72328571	     -3.29424694	     -4.06310073	      4.05936213	      0.88456261	      0.93078932	      0.50756385	     13.65964817	      2.82771343	    -17.21924689	     17.44803304	     17.44803304	      9.20584025	     -4.37629038	     -5.77222030	     29.44670097	    -10.75423377	     -1.41030332	     45.55103305	     45.55103305	     15.22793167	    -19.04556616	     18.15569282	    -11.56410252	      7.78023198	      2.70925839	     23.58175719	    -17.47461150	     -0.80233921	     43.65198778	     44.59600583	      0.00000000	      0.00000000	     -6.54537450	    -11.01808816	     -8.01514160	     59.70970745	     45.15735775	      0.00000000	      0.00000000
     38.73657143	     -3.47399633	     -3.96482975	      4.35354938	      0.88290030	      0.93084322	      0.50781754	     13.37704726	      2.75905536	    -17.34630522	     17.27174049	     17.27174049	      9.38282437	     -4.46165114	     -5.83475183	     30.01194417	    -10.29016007	     -1.30787137	     42.18177906	     42.18177906	     15.14894297	    -18.85536189	     18.10245872	    -11.47285765	      7.71251775	      2.70073934	     24.24321120	    -17.72097357	     -0.81167305	     43.95685850	     44.59773535	      0.00000000	      0.00000000	     -6.59455457	    -11.02711945	     -8.06399304	     59.50881216	     45.17210983	      0.00000000	      0.00000000
     38.74985714	     -3.56298616	     -3.87493324	      4.63263613	      0.88133770	      0.93101987	      0.50805440	     12.97835005	      2.71240137	    -17.51307468	     17.06699135	     17.06699135	      9.61172135	     -4.45180523	     -5.93968235	     30.21998480	     -9.78387950	     -1.12966618	     38.47932144	     38.47932144	     14.64249141	    -18.55296250	     17.58771338	    -11.49832950	      7.66646284	      2.68293350	     24.87845449	    -17.89462434	     -0.73812275	     44.34446532	     44.59655384	      0.00000000	      0.00000000	     -6.62226605	    -11.07920138	     -8.20283006	     59.13965568	     45.20026278	      0.00000000	      0.00000000
     38.76314286	     -3.79518186	     -4.10816834	      4.94381019	      0.87967569	      0.93054460	      0.50824283	     12.89055114	      2.95403782	    -17.79597596	     17.08148877	     17.08148877	      9.80978385	     -4.56330121	     -6.03506271	     30.75892133	     -9.61896079	     -0.82394276	     35.16408580	     35.16408580	     14.54793194	    -17.54698040	     17.57185167	    -11.31000101	      8.00810455	      2.73453812	     25.51905445	    -18.29282828	     -0.78555915	     44.62422143	     44.59744197	      0.00000000	      0.00000000	     -6.67897788	    -11.03385880	     -8.23577156	     59.05792408	     45.20815446	      0.00000000	      0.00000000
     38.77642857	     -3.75805013	     -3.88498563	      5.19673007	      0.87852932	      0.93087814	      0.50810624	     12.20714146	      2.73654813	    -18.20188786	     16.68216596	     16.68216596	     10.06294399	     -3.89982483	     -6.31010824	     30.13335479	     -8.93185396	     -0.69697052	     30.59684760	     30.59684760	     11.39783917	    -17.44932269	     11.18938998	    -11.41157496	      7.83164762	      2.63582467	     25.82655944	    -18.63938226	      0.04028734	     45.56587180	     44.59983344	      0.00000000	      0.00000000	     -6.30307409	    -10.76142738	     -9.07239813	     57.48446735	     45.38588132	      0.00000000	      0.00000000
     38.78971429	     -3.92980021	     -3.90774561	      5.43979253	      0.87711474	      0.93058233	      0.50804242	     11.98561139	      2.79029078	    -18.25802258	     16.60295902	     16.60295902	     10.28688283	     -4.12254577	     -6.33384162	     30.30567746	     -8.55503269	     -0.47483712	     27.34794495	     27.34794495	     11.19741688	    -15.79091581	     11.44567567	    -11.28407131	      7.90102889	      2.64891253	     26.24501163	    -18.87181218	      0.01098516	     45.78054022	     44.60410883	      0.00000000	      0.00000000	     -6.46148282	    -10.75721112	     -9.04109236	     57.53865548	     45.39386524	      0.00000000	      0.00000000
